<svg xmlns="http://www.w3.org/2000/svg" viewBox="0 0 265.66 226.69"><defs><style>.cls-1{fill:#41b883;}.cls-2{fill:#34495e;}</style></defs><title>logo</title><g id="Layer_2" data-name="Layer 2"><g id="Layer_1-2" data-name="Layer 1"><polygon class="cls-1" points="211.98 90 263.94 0 163.29 0 133.07 52.35 102.84 0 2.19 0 54.15 90 211.98 90"/><polygon class="cls-1" points="80.71 136 133.07 226.69 185.42 136 80.71 136"/><polygon class="cls-2" points="159.63 90 211.59 0 163.29 0 133.07 52.35 102.84 0 54.54 0 106.5 90 159.63 90"/><polygon class="cls-2" points="133.06 136 133.07 136.01 133.07 136 133.06 136"/><path class="cls-2" d="M15.67,106.65c-.45-2.4-2.15-3.61-5.09-3.61a5.71,5.71,0,0,0-3.38.87A2.56,2.56,0,0,0,6,106,2.44,2.44,0,0,0,6.78,108a7.45,7.45,0,0,0,2.44,1.3l6,2.33a12.31,12.31,0,0,1,4.71,3,6.4,6.4,0,0,1,1.66,4.52,7.13,7.13,0,0,1-2.8,5.93c-1.87,1.46-4.54,2.18-8,2.18A11.61,11.61,0,0,1,3.36,125,8.7,8.7,0,0,1,0,118H5q0,3.39,3.53,4.29a10.63,10.63,0,0,0,2.8.29,6.29,6.29,0,0,0,3.23-.87A2.62,2.62,0,0,0,16,119.38a3,3,0,0,0-.8-2.25,7.53,7.53,0,0,0-2.64-1.47l-5.48-2.17a14.24,14.24,0,0,1-4.88-2.89A6.1,6.1,0,0,1,.51,106a6.41,6.41,0,0,1,2.68-5.44,11.82,11.82,0,0,1,7.37-2.08q4.65,0,7.18,2.14a8.69,8.69,0,0,1,2.91,6Z"/><path class="cls-2" d="M33.3,122.24H44.65v4.38H28.29V99.05h5Z"/><path class="cls-2" d="M59.85,98.5a13.56,13.56,0,0,1,5.06.91,10.79,10.79,0,0,1,4,2.7q3.48,3.73,3.48,10.7t-3.48,10.84a11.74,11.74,0,0,1-9,3.56,11.55,11.55,0,0,1-9-3.65q-3.48-3.78-3.48-10.75T50.8,102Q54.07,98.5,59.85,98.5Zm7.31,14.38q0-4.74-2-7.31A6.37,6.37,0,0,0,59.85,103a6.44,6.44,0,0,0-5.35,2.57q-2,2.57-2,7.31t2,7.26a6.46,6.46,0,0,0,5.35,2.53,6.39,6.39,0,0,0,5.33-2.53Q67.16,117.62,67.16,112.88Z"/><path class="cls-2" d="M74.59,99.05H96.68v4.33H88.14v23.24h-5V103.38H74.59Z"/><path class="cls-2" d="M115.37,106.65c-.45-2.4-2.15-3.61-5.09-3.61a5.71,5.71,0,0,0-3.38.87,2.56,2.56,0,0,0-1.21,2.11,2.47,2.47,0,0,0,.78,1.93,7.62,7.62,0,0,0,2.45,1.3l6,2.33a12.31,12.31,0,0,1,4.71,3,6.4,6.4,0,0,1,1.66,4.52,7.13,7.13,0,0,1-2.81,5.93c-1.86,1.46-4.53,2.18-8,2.18a11.65,11.65,0,0,1-7.44-2.25,8.72,8.72,0,0,1-3.35-7h5q0,3.39,3.52,4.29a10.76,10.76,0,0,0,2.81.29,6.29,6.29,0,0,0,3.23-.87,2.62,2.62,0,0,0,1.48-2.33,3,3,0,0,0-.8-2.25,7.53,7.53,0,0,0-2.64-1.47l-5.48-2.17a14.24,14.24,0,0,1-4.88-2.89,6.07,6.07,0,0,1-1.7-4.58,6.42,6.42,0,0,1,2.67-5.44,11.84,11.84,0,0,1,7.37-2.08q4.66,0,7.18,2.14a8.61,8.61,0,0,1,2.91,6Z"/><path class="cls-2" d="M138.74,99.05h5v27.57h-5Z"/><path class="cls-2" d="M157.05,99.05l12.14,19.54V99.05h5v27.57h-5.1L156.58,106.4v20.22h-5V99.05Z"/><path class="cls-2" d="M195.06,99.05l6.72,21.28,6.79-21.28h5.27l-9.47,27.57H199.1l-9.35-27.57Z"/><path class="cls-2" d="M223.23,99.05v17.16q0,3.41,1.72,4.89a7.4,7.4,0,0,0,8.88,0c1.14-1,1.72-2.62,1.72-4.89V99.05h5v17.16c0,3.51-1,6.23-2.93,8.14s-4.7,2.86-8.24,2.86-6.29-.95-8.24-2.86-2.93-4.63-2.93-8.14V99.05Z"/><path class="cls-2" d="M247.91,99.05h17.75v4.33H252.92v7.27h11.94V115H252.92v7.26h12.74v4.38H247.91Z"/></g></g></svg>